<?xml version="1.0" standalone="no"?><!DOCTYPE svg PUBLIC "-//W3C//DTD SVG 1.1//EN" "http://www.w3.org/Graphics/SVG/1.1/DTD/svg11.dtd"><svg t="1701741307798" class="icon" viewBox="0 0 1024 1024" version="1.1" xmlns="http://www.w3.org/2000/svg" p-id="9323" xmlns:xlink="http://www.w3.org/1999/xlink" width="200" height="200"><path d="M768 54.4h-512c-41.6 0-73.6 32-73.6 73.6v809.6c0 12.8 6.4 22.4 16 28.8 3.2 3.2 9.6 3.2 16 3.2s12.8-3.2 19.2-6.4l131.2-92.8 131.2 92.8c12.8 6.4 25.6 6.4 38.4 0l131.2-92.8 131.2 92.8c9.6 6.4 22.4 6.4 32 3.2 9.6-6.4 16-16 16-28.8V128c-3.2-41.6-35.2-73.6-76.8-73.6z m-128 617.6h-256c-16 0-32-16-32-32s16-32 32-32h256c16 0 32 16 32 32s-16 32-32 32z m0-169.6h-256c-16 0-32-16-32-32 0-19.2 16-32 32-32h256c16 0 32 12.8 32 32 0 16-16 32-32 32z m0-172.8h-256c-16 0-32-12.8-32-32 0-16 16-32 32-32h256c16 0 32 16 32 32 0 19.2-16 32-32 32z" fill="#5288F5" p-id="9324"></path></svg>